<svg id="Layer_1" data-name="Layer 1" xmlns="http://www.w3.org/2000/svg" viewBox="0 0 368.33 578.92"><defs><style>.cls-1{fill:#2f2f2f;}</style></defs><title>logo</title><g id="btU6I7.tif"><path class="cls-1" d="M221.53,416c5.76,5.6,10.4,10.78,15.73,15.11a206.3,206.3,0,0,0,19.67,14c5.57,3.54,11.55,6.46,17.44,9.46,4.12,2.1,8.35,4,12.64,5.77,2,.81,2,1.87,1,3.25-5.46,8.26-10.82,16.58-16.5,24.68A114.18,114.18,0,0,1,259.85,503a96.16,96.16,0,0,1-15,12.29c-13.08,8.75-26.68,16.74-39.55,25.77-4.08,2.86-6.67,1-9.7-.26a35.67,35.67,0,0,1-7.43-4.68c-2.18-1.64-3.94-1.15-4.72,1.05a63.83,63.83,0,0,0-2.69,10.6c-.41,2.37-.31,4.36-3.61,4.75s-5.24,3.34-4.9,6.91c1.25-.29,2.43-.59,3.62-.85,3.25-.71,6.51-2,9.76-2a70.77,70.77,0,0,1,16.2,1.43c8,1.89,10.07,9.82,4.89,16.27-.78,1-1.66,3.12-1.25,3.56a5.9,5.9,0,0,0,4,1.63c15.46-.09,30.91-.39,46.37-.53,24.08-.22,48.16-.5,72.24-.5,18.37,0,36.75.35,55.12.59,2.18,0,4.36.47,6.52.36a3.41,3.41,0,0,0,2.56-1.66c.25-.64-.56-2-1.27-2.64-9.29-8.12-14.79-18.36-17.2-30.36-.15-.74-.34-1.48-.42-2.23-.37-3.39-1.74-5-5-4.6-5.09.6-8.26-1.86-11.46-5.38A97.94,97.94,0,0,1,340.62,508c-3.14-6.72-5.72-13.7-8.62-20.54-.38-.89-1.12-2.12-1.84-2.23a3.15,3.15,0,0,0-2.38,1.59c-3.63,6.92-7.14,13.9-10.64,20.88-2.43,4.84-4.75,9.74-7.17,14.58s-5,9.83-7.52,14.69a34,34,0,0,1-2.55,3.64l-1-.59c1.88-4.19,3.74-8.39,5.65-12.56,3.65-8,7.26-16,11-23.93,3.42-7.21,7.16-14.28,10.51-21.53,1.91-4.14,2-8.53,1.16-13.09-1-5.56-1.31-11.23-1.88-16.86-.17-1.73.11-3.73-2.41-3.89s-2.9,1.79-3.25,3.67c-1.73,9.37,0,8.57-9.58,6.1a151.36,151.36,0,0,1-24.19-8.47c-14.59-6.56-28.51-14.33-40.77-24.85-8-6.82-15.49-14-21.8-22.38-2.62-3.48-3.87-3.53-8-1.48-5.5,2.72-11.25,4.75-17.51,4.64-10.24-.18-20.47-.44-30.71-.68a6.84,6.84,0,0,1-1.41-.5c3-3.37,6-6.41,8.62-9.74,4.1-5.19,8.41-10.29,11.79-15.94a122.17,122.17,0,0,0,9-18.93c1-2.56.53-6-.17-8.82-1.48-6-3.87-11.69-5.32-17.65-2.27-9.35-4.08-18.8-6.23-28.88-.89.59-2.22,1-2.68,1.86a46.28,46.28,0,0,0-2.84,6.9c-1.92,5.69-4,11.35-5.52,17.16s-2.32,11.7-3.56,17.53c-.77,3.61-1.68,7.2-2.78,10.71-.22.7-1.66,1-2.42,1.55-1.4,1.1-3.43,2.08-3.91,3.53a25.63,25.63,0,0,0-.81,7.88c0,3.34-3.26,8.3-7.08,9.47-8.21,2.52-16.65,3.37-24.28-1.29-8.11-5-13.5-13.73-9.6-24.48,1.2-3.31,1.31-7,1.84-10.55.09-.62.06-1.62-.31-1.88-5.6-3.93-2.44-9.3-1.86-13.82a182.79,182.79,0,0,1,4.82-23.56c2.16-8.15,5-16.13,7.59-24.15a96.64,96.64,0,0,1,12.19-24.76c6.28-9.11,13-17.92,19.48-26.88s12.87-17.79,19.3-26.68c1.28-1.76,2.73-3.41,3.85-5.27,3.68-6.13,3.55-13.31,5.29-20,1.53-5.88,2.45-11.92,4.06-17.77,1.51-5.5.27-6.92-5.29-6.66-5.23.24-10.56.07-14.93-3.88-4.59-4.14-4.16-10.88-1.51-16,4.85-9.28,12.27-16.27,20.78-22.09A219.35,219.35,0,0,1,213.73,98.4a29.44,29.44,0,0,0,9.32-7.58c-3.52.61-6.91.7-9.93,1.8-11.38,4.16-22.2,9.45-31.53,17.39-1,.85-2.12,1.55-3.05,2.45-2.54,2.45-3,2.47-4.68-.45a180.83,180.83,0,0,0-33-41.47c-2.21-2.07-3.7-5-5.23-7.67-1.78-3.13-.53-6.26.51-9.36C138.28,47.06,143,42.44,147.75,38a102.59,102.59,0,0,1,34.18-20.92c5.28-2,10.51-4.42,16-5.37a58.89,58.89,0,0,1,17.5-.33c4.29.56,7.08,4,8.08,8.73,2.73,12.88,6.67,25.35,13.15,36.93,3.55,6.34,6.89,12.8,10.23,19.25,1.31,2.52,3.12,4,6,3.4,2.44-.47,4.83-1.17,7.25-1.75,3-.73,6.07-1.63,9.15-2.1,2.13-.32,3.08,1.72,1.94,4.26-1.43,3.17-3,6.29-4.67,9.32-2.12,3.78-1.2,5.7,2.79,6.83,3.2.9,6.12,2.78,9.29,3.84a13.84,13.84,0,0,0,6.07.73c8.61-1.19,17.16-2.94,25.79-3.9,5.31-.59,6.24,1,6.63,6.39a49.93,49.93,0,0,1-8.47,32.27c-2.82,4.2-6.76,7.65-10.11,11.52a74.61,74.61,0,0,0-6.22,7.77c-3.55,5.43-6.68,11.14-10.27,16.55-2.35,3.55-1.94,5.33,1.46,8,7.33,5.68,14.69,11.37,21.51,17.64,6.55,6,13,12.3,18.44,19.34a167.28,167.28,0,0,1,16.35,25.74c3.88,7.63,6.08,16.13,8.84,24.31,3.86,11.43,4.21,23.31,3.8,35.2a89.08,89.08,0,0,1-2,17.85c-2,8-4.83,15.89-7.55,23.73-1.59,4.58-3.65,9-5.49,13.49-1.45,3.54-2.24,3.68-5,1.09-6.06-5.75-13.34-9.29-21.26-11.65a7.54,7.54,0,0,0-2,0c-1,2.82,1,4.21,2.59,5.51,11.48,9.51,23.09,18.85,34.53,28.39,5.1,4.26,9.87,8.9,14.85,13.31,2.79,2.48,5.5,1.39,7.44-2.88,4.21-9.28,8.39-18.57,12.66-27.83,2.35-5.11,5.08-10.05,7.23-15.25,3.09-7.48,1.51-10.4-4.55-12.84a7.49,7.49,0,0,0-5.68.41c-4.52,2.5-4.54,2.67-8.37-1-2.67-2.52-5.46-4.91-8-7.53a6.12,6.12,0,0,1-1.82-6.15,60.64,60.64,0,0,0,1.37-12c.19-8.83.58-17.7-.1-26.48-.6-7.75-2.44-15.42-4-23.08-.45-2.23-1.71-4.3-2.59-6.44l.78-.67c2.25,1.53,4.6,2.95,6.74,4.62,10.29,8,20.84,15.79,30.69,24.34,8.07,7,15.3,15,22.81,22.63,1.06,1.08,2.12,2.48.41,4.22-2.66,2.7-2.37,5,.79,7.25a17.73,17.73,0,0,1,7.64,11c1.42,6.65-.32,12.38-4.72,17.55-2.85,3.34-5.71,6.4-9.67,8.6-3.49,1.94-6.9,2-10.45,1.28-4.22-.81-5.17-.32-7,3.34-4,8.17-8.27,16.21-12.35,24.34-1.64,3.27-3.06,6.65-4.68,9.94-1,2-2.18,3.86-3.19,5.83-2.49,4.87-2.09,5.87,2,9.78s8.62,8.1,12.09,12.77a65.06,65.06,0,0,1,8.56,15.17c3.66,9.51,6.71,19.28,9.54,29.07,3,10.28,5.47,20.71,8.06,31.1,1.52,6.1,3,12.22,4,18.42.3,1.84-.69,4.28-1.87,5.87-2.21,3-1.74,5.44,1.64,6.86,6.63,2.78,13.31,5.27,20.55,6,2.41.23,2.81,1.73,1.6,3.73-.53.88-1,1.78-1.66,2.87,3.75,1.86,5.82-1.05,7.66-2.48a150.24,150.24,0,0,0,12.91-11.84c4.85-4.77,15.75-6.87,21.48-3.41a11.76,11.76,0,0,1,4.37,5.89,17.91,17.91,0,0,1-6.21,20.07c-6.95,5.13-15.17,7.18-23.39,9.12-6.44,1.52-12.93,2.77-19.37,4.28-3.77.89-4,1.51-3.18,6.29-4.19,1.75-8.44,3.59-12.74,5.3-3.71,1.48-7.5,2.77-11.22,4.24-.6.24-1.46,1.1-1.38,1.49a2.91,2.91,0,0,0,1.48,1.79,8.54,8.54,0,0,0,3.17.66c8.1.29,16.2.41,24.3.8q17.35.82,34.69,2c2.05.14,4.05,1,6.08,1.57l0,.84a23.1,23.1,0,0,1-4.19,1.06c-8.07.52-16.16.74-24.22,1.39-25.58,2.07-51.21,2-76.85,2.08-38.51.1-77,.46-115.54.48-22,0-44.1-.18-66.13-.74-13.63-.35-27.24-1.6-40.87-2.38-5.9-.34-11.81-.45-17.71-.79a38.57,38.57,0,0,1-5.22-1l0-1.28c2.46-.43,4.91-1.06,7.39-1.26,4.46-.36,8.94-.39,13.41-.69,2.89-.19,3-2.58,1.78-4-3.41-3.71-3.46-8.07-3.43-12.57,0-5.69,0-5.51-5.52-6.37a7,7,0,0,1-4.37-2.95c-3.33-5.61-6.21-11.39-7.52-18a13.22,13.22,0,0,1,3.38-12.37c6.25-6.51,14.11-10.8,22.36-14.35,2.77-1.19,5.79-2,8.21-3.72,1.15-.8,2.15-3.77,1.56-4.83-4-7.22,1-11,5.44-14.71,8-6.73,16.07-13.37,24.38-19.7a63.13,63.13,0,0,1,11.33-6.34c3.49-1.66,4.82-.73,4.86,3.21a30.59,30.59,0,0,0,4.06,14.63c1,1.86,2.37,3.36,4.28,2.25.92-.54,1.49-3,1.1-4.25-2.87-9.2-3-18.71-3-28.15a79.81,79.81,0,0,1,4.18-26.3C219.77,420.89,220.62,418.54,221.53,416Zm3.61-230.82-.37,1.16c2.57,1.65,5.06,3.45,7.73,4.92q17,9.41,34.17,18.65,19.72,10.67,39.49,21.25c2.06,1.1,4.2,1.66,5.65-.5-1.06-1.9-1.87-3.39-2.72-4.86-5.6-9.59-11.19-19.19-16.85-28.75a5,5,0,0,0-2.16-1.86c-4.76-2.09-9.54-4.17-14.4-6a4.76,4.76,0,0,0-3.59.64,42.52,42.52,0,0,0-4.78,4c.3-.94.66-1.88.88-2.86.32-1.42.53-2.86.79-4.29a30.11,30.11,0,0,0-4.64.21c-3,.58-6,2.26-8.79,2-9-1-17.82-2.64-26.74-3.95A16,16,0,0,0,225.14,185.18Zm76.49-83.71c-4.48.92-9.05,1.54-13.4,2.89a9.75,9.75,0,0,0-4.81,4.1c-3.46,5.65-4.91,12.11-5.55,18.55-.71,7.19,1.3,13.81,7.25,18.65,2.81,2.29,5.44,2.49,8.4.49,10.31-7,16.14-17,18.89-28.89a6.84,6.84,0,0,0-2.4-7.06,12.59,12.59,0,0,1-3.58-5.17C305.59,102.42,304.31,101.33,301.62,101.47Zm36.09,174.89.93-.72a16.87,16.87,0,0,0-1.2-4.13,55.51,55.51,0,0,0-4.36-6c-9.28-11.72-21.25-19.9-34.84-25.68-5.85-2.49-12.45-3.59-13.85-11.33-.11-.63-.33-1.61-.73-1.75a14.41,14.41,0,0,0-3.21-.38c.22,4.51.39,9,.75,13.52,0,.48,1.13,1,1.81,1.28,6.63,3,13.42,5.58,19.87,8.88a106.85,106.85,0,0,1,16.58,10.13c5.15,4,9.5,9,14.28,13.47A31.1,31.1,0,0,0,337.72,276.36Zm-64.44-50.52.16-1.36c-1.82-.49-3.62-1.13-5.47-1.43-2.89-.47-6.34.15-8.63-1.23-5.69-3.42-10.84-7.72-16.24-11.63-3-2.15-5.75-4.73-9.82-5a19,19,0,0,0,3.5,5.48c5,5,10.3,9.77,15.39,14.73,3.21,3.12,6.48,5,11.11,2.78,2-1,4.47-1,6.72-1.45C271.1,226.51,272.18,226.15,273.27,225.84Zm2.44-112.13c.1-2.66-1.14-4.18-3.84-4.27a4.52,4.52,0,0,0-5,4.49,5,5,0,0,0,4.39,4.89C273.8,118.93,275.66,116.76,275.72,113.71Z" transform="translate(-116.25 -10.91)"/></g></svg>